<svg width="124" height="28" viewBox="0 0 124 28" fill="none" xmlns="http://www.w3.org/2000/svg">
<g filter="url(#filter0_d_1_31)">
<path d="M4.89844 9.83398V9.60938C4.89844 8.84766 5.00911 8.14128 5.23047 7.49023C5.45182 6.83268 5.77083 6.26302 6.1875 5.78125C6.60417 5.29297 7.10872 4.91536 7.70117 4.64844C8.29362 4.375 8.95768 4.23828 9.69336 4.23828C10.4355 4.23828 11.1029 4.375 11.6953 4.64844C12.2943 4.91536 12.8021 5.29297 13.2188 5.78125C13.6419 6.26302 13.9642 6.83268 14.1855 7.49023C14.4069 8.14128 14.5176 8.84766 14.5176 9.60938V9.83398C14.5176 10.5957 14.4069 11.3021 14.1855 11.9531C13.9642 12.6042 13.6419 13.1738 13.2188 13.6621C12.8021 14.1439 12.2975 14.5215 11.7051 14.7949C11.1191 15.0618 10.4551 15.1953 9.71289 15.1953C8.9707 15.1953 8.30339 15.0618 7.71094 14.7949C7.11849 14.5215 6.61068 14.1439 6.1875 13.6621C5.77083 13.1738 5.45182 12.6042 5.23047 11.9531C5.00911 11.3021 4.89844 10.5957 4.89844 9.83398ZM6.70508 9.60938V9.83398C6.70508 10.3613 6.76693 10.8594 6.89062 11.3281C7.01432 11.7904 7.19987 12.2005 7.44727 12.5586C7.70117 12.9167 8.01693 13.1999 8.39453 13.4082C8.77214 13.61 9.21159 13.7109 9.71289 13.7109C10.2077 13.7109 10.6406 13.61 11.0117 13.4082C11.3893 13.1999 11.7018 12.9167 11.9492 12.5586C12.1966 12.2005 12.3822 11.7904 12.5059 11.3281C12.6361 10.8594 12.7012 10.3613 12.7012 9.83398V9.60938C12.7012 9.08854 12.6361 8.59701 12.5059 8.13477C12.3822 7.66602 12.1934 7.2526 11.9395 6.89453C11.6921 6.52995 11.3796 6.24349 11.002 6.03516C10.6309 5.82682 10.1947 5.72266 9.69336 5.72266C9.19857 5.72266 8.76237 5.82682 8.38477 6.03516C8.01367 6.24349 7.70117 6.52995 7.44727 6.89453C7.19987 7.2526 7.01432 7.66602 6.89062 8.13477C6.76693 8.59701 6.70508 9.08854 6.70508 9.60938ZM23.9512 9.01367V10.4785H18.3652V9.01367H23.9512ZM18.7461 4.43359V15H16.9395V4.43359H18.7461ZM25.416 4.43359V15H23.5996V4.43359H25.416ZM35.3867 4.43359V5.92773H30.2793V4.43359H35.3867ZM36.9785 4.43359V15H35.1719V4.43359H36.9785ZM29.8398 4.43359H31.6562L31.3828 9.53125C31.3372 10.319 31.2624 11.0156 31.1582 11.6211C31.0605 12.2201 30.9238 12.7344 30.748 13.1641C30.5788 13.5938 30.3639 13.9453 30.1035 14.2188C29.8496 14.4857 29.5436 14.6842 29.1855 14.8145C28.8275 14.9382 28.4141 15 27.9453 15H27.3789V13.4082L27.7695 13.3789C28.0495 13.3594 28.2871 13.2943 28.4824 13.1836C28.6842 13.0729 28.8535 12.9102 28.9902 12.6953C29.127 12.474 29.2376 12.1908 29.3223 11.8457C29.4134 11.5007 29.4818 11.0905 29.5273 10.6152C29.5794 10.14 29.6185 9.58659 29.6445 8.95508L29.8398 4.43359ZM46.1191 13.1934V7.75391C46.1191 7.33724 46.0345 6.97591 45.8652 6.66992C45.7025 6.35742 45.4551 6.11654 45.123 5.94727C44.791 5.77799 44.3809 5.69336 43.8926 5.69336C43.4368 5.69336 43.0365 5.77148 42.6914 5.92773C42.3529 6.08398 42.0859 6.28906 41.8906 6.54297C41.7018 6.79688 41.6074 7.07031 41.6074 7.36328H39.8008C39.8008 6.98568 39.8984 6.61133 40.0938 6.24023C40.2891 5.86914 40.569 5.53385 40.9336 5.23438C41.3047 4.92839 41.7474 4.6875 42.2617 4.51172C42.7826 4.32943 43.362 4.23828 44 4.23828C44.7682 4.23828 45.4453 4.36849 46.0312 4.62891C46.6237 4.88932 47.0859 5.2832 47.418 5.81055C47.7565 6.33138 47.9258 6.98568 47.9258 7.77344V12.6953C47.9258 13.0469 47.9551 13.4212 48.0137 13.8184C48.0788 14.2155 48.1732 14.5573 48.2969 14.8438V15H46.4121C46.321 14.7917 46.2493 14.515 46.1973 14.1699C46.1452 13.8184 46.1191 13.4928 46.1191 13.1934ZM46.4316 8.59375L46.4512 9.86328H44.625C44.1107 9.86328 43.6517 9.9056 43.248 9.99023C42.8444 10.0684 42.5059 10.1888 42.2324 10.3516C41.959 10.5143 41.7507 10.7194 41.6074 10.9668C41.4642 11.2077 41.3926 11.4909 41.3926 11.8164C41.3926 12.1484 41.4674 12.4512 41.6172 12.7246C41.7669 12.998 41.9915 13.2161 42.291 13.3789C42.597 13.5352 42.9714 13.6133 43.4141 13.6133C43.9674 13.6133 44.4557 13.4961 44.8789 13.2617C45.3021 13.0273 45.6374 12.7409 45.8848 12.4023C46.1387 12.0638 46.2754 11.735 46.2949 11.416L47.0664 12.2852C47.0208 12.5586 46.8971 12.8613 46.6953 13.1934C46.4935 13.5254 46.2233 13.8444 45.8848 14.1504C45.5527 14.4499 45.1556 14.7005 44.6934 14.9023C44.2376 15.0977 43.7233 15.1953 43.1504 15.1953C42.4342 15.1953 41.806 15.0553 41.2656 14.7754C40.7318 14.4954 40.3151 14.1211 40.0156 13.6523C39.7227 13.1771 39.5762 12.6465 39.5762 12.0605C39.5762 11.4941 39.6868 10.9961 39.9082 10.5664C40.1296 10.1302 40.4486 9.76888 40.8652 9.48242C41.2819 9.18945 41.7832 8.9681 42.3691 8.81836C42.9551 8.66862 43.6094 8.59375 44.332 8.59375H46.4316ZM52.7207 12.1387L57.5938 4.43359H59.4102V15H57.5938V7.29492L52.7207 15H50.9238V4.43359H52.7207V12.1387ZM56.6074 0.605469H58.0723C58.0723 1.11328 57.9551 1.56576 57.7207 1.96289C57.4863 2.35352 57.151 2.65951 56.7148 2.88086C56.2786 3.10221 55.7611 3.21289 55.1621 3.21289C54.2572 3.21289 53.541 2.97201 53.0137 2.49023C52.4928 2.00195 52.2324 1.3737 52.2324 0.605469H53.6973C53.6973 0.989583 53.8079 1.32812 54.0293 1.62109C54.2507 1.91406 54.6283 2.06055 55.1621 2.06055C55.6829 2.06055 56.054 1.91406 56.2754 1.62109C56.4967 1.32812 56.6074 0.989583 56.6074 0.605469ZM69.4785 9.01367V10.4785H63.8926V9.01367H69.4785ZM64.2734 4.43359V15H62.4668V4.43359H64.2734ZM70.9434 4.43359V15H69.127V4.43359H70.9434ZM77.6133 8.21289V9.69727H72.8477V8.21289H77.6133ZM81.3438 4.43359V15H79.5371V4.43359H81.3438ZM88.2773 4.43359L83.2676 10.4883H80.7383L80.4648 8.90625H82.5352L86.0801 4.43359H88.2773ZM86.334 15L82.4473 10.2148L83.6094 8.90625L88.6289 15H86.334ZM93.1699 13.9062L96.1094 4.43359H98.043L93.8047 16.6309C93.707 16.8913 93.5768 17.1712 93.4141 17.4707C93.2578 17.7767 93.056 18.0664 92.8086 18.3398C92.5612 18.6133 92.2617 18.8346 91.9102 19.0039C91.5651 19.1797 91.1517 19.2676 90.6699 19.2676C90.5267 19.2676 90.3444 19.248 90.123 19.209C89.9017 19.1699 89.7454 19.1374 89.6543 19.1113L89.6445 17.6465C89.6966 17.653 89.778 17.6595 89.8887 17.666C90.0059 17.679 90.0872 17.6855 90.1328 17.6855C90.543 17.6855 90.8913 17.6302 91.1777 17.5195C91.4642 17.4154 91.7051 17.2363 91.9004 16.9824C92.1022 16.735 92.2747 16.3932 92.418 15.957L93.1699 13.9062ZM91.0117 4.43359L93.7559 12.6367L94.2246 14.541L92.9258 15.2051L89.0391 4.43359H91.0117ZM101.48 6.46484V19.0625H99.6641V4.43359H101.324L101.48 6.46484ZM108.6 9.62891V9.83398C108.6 10.6022 108.508 11.3151 108.326 11.9727C108.144 12.6237 107.877 13.1901 107.525 13.6719C107.18 14.1536 106.754 14.528 106.246 14.7949C105.738 15.0618 105.156 15.1953 104.498 15.1953C103.827 15.1953 103.235 15.0846 102.721 14.8633C102.206 14.6419 101.77 14.3197 101.412 13.8965C101.054 13.4733 100.768 12.9655 100.553 12.373C100.344 11.7806 100.201 11.1133 100.123 10.3711V9.27734C100.201 8.49609 100.348 7.79622 100.562 7.17773C100.777 6.55924 101.061 6.0319 101.412 5.5957C101.77 5.15299 102.203 4.81771 102.711 4.58984C103.219 4.35547 103.805 4.23828 104.469 4.23828C105.133 4.23828 105.722 4.36849 106.236 4.62891C106.751 4.88281 107.184 5.2474 107.535 5.72266C107.887 6.19792 108.15 6.76758 108.326 7.43164C108.508 8.08919 108.6 8.82161 108.6 9.62891ZM106.783 9.83398V9.62891C106.783 9.10156 106.728 8.60677 106.617 8.14453C106.507 7.67578 106.334 7.26562 106.1 6.91406C105.872 6.55599 105.579 6.27604 105.221 6.07422C104.863 5.86589 104.436 5.76172 103.941 5.76172C103.486 5.76172 103.089 5.83984 102.75 5.99609C102.418 6.15234 102.135 6.36393 101.9 6.63086C101.666 6.89128 101.474 7.19076 101.324 7.5293C101.181 7.86133 101.074 8.20638 101.002 8.56445V11.0938C101.132 11.5495 101.314 11.9792 101.549 12.3828C101.783 12.7799 102.096 13.1022 102.486 13.3496C102.877 13.5905 103.368 13.7109 103.961 13.7109C104.449 13.7109 104.869 13.61 105.221 13.4082C105.579 13.1999 105.872 12.9167 106.1 12.5586C106.334 12.2005 106.507 11.7904 106.617 11.3281C106.728 10.8594 106.783 10.3613 106.783 9.83398ZM115.133 13.7109C115.562 13.7109 115.96 13.623 116.324 13.4473C116.689 13.2715 116.988 13.0306 117.223 12.7246C117.457 12.4121 117.59 12.0573 117.623 11.6602H119.342C119.309 12.2852 119.098 12.8678 118.707 13.4082C118.323 13.9421 117.818 14.375 117.193 14.707C116.568 15.0326 115.882 15.1953 115.133 15.1953C114.339 15.1953 113.645 15.0553 113.053 14.7754C112.467 14.4954 111.979 14.1113 111.588 13.623C111.204 13.1348 110.914 12.5749 110.719 11.9434C110.53 11.3053 110.436 10.6315 110.436 9.92188V9.51172C110.436 8.80208 110.53 8.13151 110.719 7.5C110.914 6.86198 111.204 6.29883 111.588 5.81055C111.979 5.32227 112.467 4.93815 113.053 4.6582C113.645 4.37826 114.339 4.23828 115.133 4.23828C115.96 4.23828 116.682 4.40755 117.301 4.74609C117.919 5.07812 118.404 5.53385 118.756 6.11328C119.114 6.6862 119.309 7.33724 119.342 8.06641H117.623C117.59 7.63021 117.467 7.23633 117.252 6.88477C117.044 6.5332 116.757 6.25326 116.393 6.04492C116.035 5.83008 115.615 5.72266 115.133 5.72266C114.579 5.72266 114.114 5.83333 113.736 6.05469C113.365 6.26953 113.069 6.5625 112.848 6.93359C112.633 7.29818 112.477 7.70508 112.379 8.1543C112.288 8.59701 112.242 9.04948 112.242 9.51172V9.92188C112.242 10.3841 112.288 10.8398 112.379 11.2891C112.47 11.7383 112.623 12.1452 112.838 12.5098C113.059 12.8743 113.355 13.1673 113.727 13.3887C114.104 13.6035 114.573 13.7109 115.133 13.7109Z" fill="black"/>
</g>
<defs>
<filter id="filter0_d_1_31" x="0.898438" y="0.605469" width="122.443" height="26.6621" filterUnits="userSpaceOnUse" color-interpolation-filters="sRGB">
<feFlood flood-opacity="0" result="BackgroundImageFix"/>
<feColorMatrix in="SourceAlpha" type="matrix" values="0 0 0 0 0 0 0 0 0 0 0 0 0 0 0 0 0 0 127 0" result="hardAlpha"/>
<feOffset dy="4"/>
<feGaussianBlur stdDeviation="2"/>
<feComposite in2="hardAlpha" operator="out"/>
<feColorMatrix type="matrix" values="0 0 0 0 0 0 0 0 0 0 0 0 0 0 0 0 0 0 0.25 0"/>
<feBlend mode="normal" in2="BackgroundImageFix" result="effect1_dropShadow_1_31"/>
<feBlend mode="normal" in="SourceGraphic" in2="effect1_dropShadow_1_31" result="shape"/>
</filter>
</defs>
</svg>
